<svg preserveAspectRatio="none" width="100%" height="100%" overflow="visible" style="display: block;" viewBox="0 0 11.833 15" fill="none" xmlns="http://www.w3.org/2000/svg">
<path id="Subtract" d="M4.33301 8.4375C5.36406 8.43688 6.38007 8.55775 7.37988 8.80078C8.37975 9.04387 9.36438 9.4076 10.333 9.89062C10.7859 10.1249 11.1492 10.4649 11.4229 10.9102C11.6966 11.3558 11.8336 11.8444 11.833 12.375V15H0V14.9668C0.704008 14.4571 1 14.1652 1 13.2783V9.82812C1 9.61246 0.957607 9.52538 0.794922 9.46484C0.590949 9.39278 0.316196 9.2908 0.0117188 9.17969C0.433677 9.03187 0.858459 8.90424 1.28613 8.80078C2.28594 8.55896 3.30196 8.43816 4.33301 8.4375ZM0.0117188 9.17969C0.0078337 9.18105 0.00388461 9.18223 0 9.18359V9.1748C0.00397622 9.17626 0.00775241 9.17824 0.0117188 9.17969ZM4.33301 0C5.36414 0 6.24712 0.367351 6.98145 1.10156C7.71582 1.83594 8.08301 2.71875 8.08301 3.75C8.08301 4.78125 7.71582 5.66406 6.98145 6.39844C6.24712 7.13265 5.36414 7.5 4.33301 7.5C3.30197 7.49988 2.41883 7.1327 1.68457 6.39844C0.950358 5.66411 0.583008 4.78114 0.583008 3.75C0.583008 2.71886 0.950358 1.83589 1.68457 1.10156C2.41883 0.367303 3.30197 0.00011605 4.33301 0Z" fill="var(--fill-0, #9E9E9E)"/>
</svg>
