<svg preserveAspectRatio="none" width="100%" height="100%" overflow="visible" style="display: block;" viewBox="0 0 15 15" fill="none" xmlns="http://www.w3.org/2000/svg">
<path id="Vector" d="M14.2857 3.57143H12.1429V0.714286C12.1429 0.285714 11.8571 0 11.4286 0H3.57143C3.14286 0 2.85714 0.285714 2.85714 0.714286V3.57143H0.714286C0.285714 3.57143 0 3.85714 0 4.28571V14.2857C0 14.7143 0.285714 15 0.714286 15H14.2857C14.7143 15 15 14.7143 15 14.2857V4.28571C15 3.85714 14.7143 3.57143 14.2857 3.57143ZM4.28571 12.1429H3.57143C3.14286 12.1429 2.85714 11.8571 2.85714 11.4286C2.85714 11 3.14286 10.7143 3.57143 10.7143H4.28571C4.71429 10.7143 5 11 5 11.4286C5 11.8571 4.71429 12.1429 4.28571 12.1429ZM4.28571 9.28571H3.57143C3.14286 9.28571 2.85714 9 2.85714 8.57143C2.85714 8.14286 3.14286 7.85714 3.57143 7.85714H4.28571C4.71429 7.85714 5 8.14286 5 8.57143C5 9 4.71429 9.28571 4.28571 9.28571ZM7.85714 12.1429H7.14286C6.71429 12.1429 6.42857 11.8571 6.42857 11.4286C6.42857 11 6.71429 10.7143 7.14286 10.7143H7.85714C8.28571 10.7143 8.57143 11 8.57143 11.4286C8.57143 11.8571 8.28571 12.1429 7.85714 12.1429ZM7.85714 9.28571H7.14286C6.71429 9.28571 6.42857 9 6.42857 8.57143C6.42857 8.14286 6.71429 7.85714 7.14286 7.85714H7.85714C8.28571 7.85714 8.57143 8.14286 8.57143 8.57143C8.57143 9 8.28571 9.28571 7.85714 9.28571ZM8.57143 5.35714H8.21429V5.71429C8.21429 6.14286 7.92857 6.42857 7.5 6.42857C7.07143 6.42857 6.78571 6.14286 6.78571 5.71429V5.35714H6.42857C6 5.35714 5.71429 5.07143 5.71429 4.64286C5.71429 4.21429 6 3.92857 6.42857 3.92857H6.78571V3.57143C6.78571 3.14286 7.07143 2.85714 7.5 2.85714C7.92857 2.85714 8.21429 3.14286 8.21429 3.57143V3.92857H8.57143C9 3.92857 9.28571 4.21429 9.28571 4.64286C9.28571 5.07143 9 5.35714 8.57143 5.35714ZM11.4286 12.1429H10.7143C10.2857 12.1429 10 11.8571 10 11.4286C10 11 10.2857 10.7143 10.7143 10.7143H11.4286C11.8571 10.7143 12.1429 11 12.1429 11.4286C12.1429 11.8571 11.8571 12.1429 11.4286 12.1429ZM11.4286 9.28571H10.7143C10.2857 9.28571 10 9 10 8.57143C10 8.14286 10.2857 7.85714 10.7143 7.85714H11.4286C11.8571 7.85714 12.1429 8.14286 12.1429 8.57143C12.1429 9 11.8571 9.28571 11.4286 9.28571Z" fill="var(--fill-0, #9E9E9E)"/>
</svg>
