<svg preserveAspectRatio="none" width="100%" height="100%" overflow="visible" style="display: block;" viewBox="0 0 5.18292 6.49189" fill="none" xmlns="http://www.w3.org/2000/svg">
<path id="Vector" d="M2.59146 6.49189C2.52969 6.49189 2.46204 6.46249 2.36497 6.40071C0.605949 5.31823 0 5.00349 0 3.84453V1.16189C0 0.994227 0.032359 0.929515 0.161783 0.879508C0.691255 0.667722 1.89139 0.250028 2.42086 0.0411814C2.48851 0.014708 2.54734 0 2.59146 0C2.63559 0 2.69442 0.014708 2.76207 0.0411814C3.29449 0.250028 4.48285 0.688309 5.02409 0.879508C5.15057 0.926572 5.18292 0.994227 5.18292 1.16189V3.84453C5.18292 5.00349 4.57403 5.31235 2.81797 6.40071C2.72089 6.46249 2.65324 6.49189 2.59146 6.49189Z" fill="var(--fill-0, #9E9E9E)"/>
</svg>
