<svg preserveAspectRatio="none" width="100%" height="100%" overflow="visible" style="display: block;" viewBox="0 0 15 14.9795" fill="none" xmlns="http://www.w3.org/2000/svg">
<path id="Vector" d="M5.80711 14.9795L3.77565 11.2038L0 9.17237L1.45691 7.73598L4.43229 8.24897L6.52531 6.15595L0.0205199 3.38577L1.74419 1.62107L9.64432 3.01642L12.1888 0.471956C12.5034 0.157319 12.8933 0 13.3584 0C13.8235 0 14.2134 0.157319 14.528 0.471956C14.8427 0.786594 15 1.17291 15 1.63092C15 2.08892 14.8427 2.47551 14.528 2.7907L11.9631 5.35568L13.3584 13.2353L11.6142 14.9795L8.82353 8.47469L6.73051 10.5677L7.26402 13.5226L5.80711 14.9795Z" fill="var(--fill-0, #8D8D8D)"/>
</svg>
