<svg width="50" height="106" viewBox="0 0 50 106" fill="none" xmlns="http://www.w3.org/2000/svg">
<g opacity="0.45">
<path d="M3.92773 26.9467C3.92773 22.2664 3.92773 19.9262 5.86619 16.201C7.80464 12.4758 8.89255 11.7135 11.0684 10.189C17.1497 5.92788 27.5565 1.2461 43.9276 1.24609C60.2987 1.24609 70.7055 5.92788 76.7868 10.189C78.9626 11.7135 80.0505 12.4758 81.989 16.201C83.9275 19.9262 83.9275 22.2664 83.9275 26.9467V58.7157C83.9275 64.4765 83.9275 67.3568 82.9129 70.1754C81.8984 72.9939 80.2746 74.9574 77.0269 78.8842C71.4004 85.6873 66.1047 90.8299 59.6439 95.6607C52.7451 100.819 49.2957 103.398 43.7011 103.465C38.1064 103.532 34.6899 101.102 27.8568 96.2422C20.9884 91.3576 15.5345 85.9489 9.84672 78.4181C7.08755 74.7648 5.70797 72.9382 4.81785 70.2827C3.92773 67.6273 3.92773 64.9776 3.92773 59.6782V26.9467Z" fill="url(#paint0_linear_2082_42803)"/>
<path opacity="0.3" d="M43.9287 7.78809C58.2684 7.78809 67.3732 11.8881 72.6855 15.6104C73.6424 16.2808 74.3452 16.7745 75.0225 17.5039C75.6992 18.2328 76.3555 19.2042 77.2031 20.833C78.8859 24.0668 78.8877 26.0871 78.8877 30.1943V58.083C78.8877 63.1499 78.8853 65.6477 78.0059 68.0908C77.1262 70.5343 75.7208 72.2367 72.8652 75.6895C67.9329 81.6532 63.2923 86.1582 57.6318 90.3906C51.5663 94.9259 48.5792 97.1531 43.7275 97.2109C38.8758 97.2687 35.9181 95.1715 29.9111 90.8994C23.8962 86.6217 19.1195 81.8851 14.1348 75.2852C11.7089 72.0732 10.515 70.4901 9.74316 68.1875C8.97168 65.8858 8.96973 63.5885 8.96973 58.9277V30.1943C8.96973 26.0871 8.97153 24.0668 10.6543 20.833C11.5019 19.2042 12.1582 18.2328 12.835 17.5039C13.5122 16.7745 14.215 16.2808 15.1719 15.6104C20.4842 11.8881 29.589 7.78809 43.9287 7.78809Z" stroke="url(#paint1_linear_2082_42803)" stroke-width="0.310756"/>
<g filter="url(#filter0_ddii_2082_42803)">
<path d="M12.7246 32.7764C12.7246 29.1248 12.7246 27.299 14.237 24.3925C15.7494 21.4861 16.5982 20.8914 18.2958 19.7019C23.0405 16.3774 31.1599 12.7246 43.9328 12.7246C56.7057 12.7246 64.8251 16.3774 69.5698 19.7019C71.2674 20.8914 72.1162 21.4861 73.6286 24.3926C75.141 27.299 75.141 29.1248 75.141 32.7764V57.5628C75.141 62.0574 75.141 64.3047 74.3495 66.5038C73.5579 68.7028 72.291 70.2347 69.7571 73.2985C65.3673 78.6063 61.2356 82.6186 56.1948 86.3876C50.8123 90.4122 48.1211 92.4244 43.7561 92.4765C39.3911 92.5285 36.7255 90.6328 31.3942 86.8413C26.0355 83.0303 21.7803 78.8104 17.3426 72.9348C15.1899 70.0845 14.1136 68.6593 13.4191 66.5875C12.7246 64.5157 12.7246 62.4484 12.7246 58.3137V32.7764Z" fill="url(#paint2_linear_2082_42803)"/>
</g>
<g filter="url(#filter1_ii_2082_42803)">
<path d="M18.5332 31.4448C18.5332 29.7549 18.5332 28.9099 19.06 27.7721C19.5867 26.6344 20.0299 26.2583 20.9163 25.5062C24.2178 22.7049 31.2591 18.5352 43.9229 18.5352C56.5868 18.5352 63.628 22.7049 66.9295 25.5062C67.8159 26.2583 68.2591 26.6344 68.7859 27.7721C69.3126 28.9099 69.3126 29.7549 69.3126 31.4448V58.4013C69.3126 60.9449 69.3126 62.2168 68.8976 63.4293C68.4826 64.6418 67.7456 65.5923 66.2716 67.4932C60.89 74.4335 56.2253 79.1767 49.2039 83.8426C46.7658 85.4628 45.5468 86.2729 43.8855 86.3037C42.2243 86.3345 40.9873 85.5771 38.5134 84.0622C31.1562 79.5571 26.4169 74.7531 21.1359 67.278C19.8825 65.504 19.2559 64.617 18.8945 63.4793C18.5332 62.3416 18.5332 61.1721 18.5332 58.8331L18.5332 31.4448Z" fill="url(#paint3_linear_2082_42803)"/>
</g>
<g filter="url(#filter2_ddii_2082_42803)">
<path d="M30.9336 49.3085L39.8076 58.4836L57.186 40.5156" stroke="url(#paint4_linear_2082_42803)" stroke-width="9.37585" stroke-linecap="round" stroke-linejoin="round"/>
</g>
<g opacity="0.3" filter="url(#filter3_f_2082_42803)">
<path d="M15.7754 41.832V56.7677C15.7754 60.52 15.7754 62.3961 16.5108 64.6632C17.2463 66.9302 18.097 68.1034 19.7983 70.4496C22.3126 73.9169 25.5385 77.797 28.6612 80.4628" stroke="url(#paint5_linear_2082_42803)" stroke-opacity="0.93" stroke-width="1.52676" stroke-linecap="round"/>
</g>
</g>
<defs>
<filter id="filter0_ddii_2082_42803" x="0.000235558" y="0.000235558" width="87.8648" height="105.201" filterUnits="userSpaceOnUse" color-interpolation-filters="sRGB">
<feFlood flood-opacity="0" result="BackgroundImageFix"/>
<feColorMatrix in="SourceAlpha" type="matrix" values="0 0 0 0 0 0 0 0 0 0 0 0 0 0 0 0 0 0 127 0" result="hardAlpha"/>
<feOffset dx="4.01822" dy="-4.01822"/>
<feGaussianBlur stdDeviation="4.35308"/>
<feComposite in2="hardAlpha" operator="out"/>
<feColorMatrix type="matrix" values="0 0 0 0 1 0 0 0 0 1 0 0 0 0 1 0 0 0 1 0"/>
<feBlend mode="normal" in2="BackgroundImageFix" result="effect1_dropShadow_2082_42803"/>
<feColorMatrix in="SourceAlpha" type="matrix" values="0 0 0 0 0 0 0 0 0 0 0 0 0 0 0 0 0 0 127 0" result="hardAlpha"/>
<feOffset dx="-4.01822" dy="4.01822"/>
<feGaussianBlur stdDeviation="4.35308"/>
<feComposite in2="hardAlpha" operator="out"/>
<feColorMatrix type="matrix" values="0 0 0 0 0 0 0 0 0 0 0 0 0 0 0 0 0 0 0.5 0"/>
<feBlend mode="normal" in2="effect1_dropShadow_2082_42803" result="effect2_dropShadow_2082_42803"/>
<feBlend mode="normal" in="SourceGraphic" in2="effect2_dropShadow_2082_42803" result="shape"/>
<feColorMatrix in="SourceAlpha" type="matrix" values="0 0 0 0 0 0 0 0 0 0 0 0 0 0 0 0 0 0 127 0" result="hardAlpha"/>
<feOffset dx="-2.00911" dy="2.00911"/>
<feGaussianBlur stdDeviation="1.23895"/>
<feComposite in2="hardAlpha" operator="arithmetic" k2="-1" k3="1"/>
<feColorMatrix type="matrix" values="0 0 0 0 1 0 0 0 0 1 0 0 0 0 1 0 0 0 0.77 0"/>
<feBlend mode="normal" in2="shape" result="effect3_innerShadow_2082_42803"/>
<feColorMatrix in="SourceAlpha" type="matrix" values="0 0 0 0 0 0 0 0 0 0 0 0 0 0 0 0 0 0 127 0" result="hardAlpha"/>
<feOffset dx="2.00911" dy="-2.00911"/>
<feGaussianBlur stdDeviation="1.23895"/>
<feComposite in2="hardAlpha" operator="arithmetic" k2="-1" k3="1"/>
<feColorMatrix type="matrix" values="0 0 0 0 0 0 0 0 0 0 0 0 0 0 0 0 0 0 0.45 0"/>
<feBlend mode="normal" in2="effect3_innerShadow_2082_42803" result="effect4_innerShadow_2082_42803"/>
</filter>
<filter id="filter1_ii_2082_42803" x="16.5241" y="16.526" width="54.7975" height="71.7878" filterUnits="userSpaceOnUse" color-interpolation-filters="sRGB">
<feFlood flood-opacity="0" result="BackgroundImageFix"/>
<feBlend mode="normal" in="SourceGraphic" in2="BackgroundImageFix" result="shape"/>
<feColorMatrix in="SourceAlpha" type="matrix" values="0 0 0 0 0 0 0 0 0 0 0 0 0 0 0 0 0 0 127 0" result="hardAlpha"/>
<feOffset dx="-2.00911" dy="2.00911"/>
<feGaussianBlur stdDeviation="3.51595"/>
<feComposite in2="hardAlpha" operator="arithmetic" k2="-1" k3="1"/>
<feColorMatrix type="matrix" values="0 0 0 0 0 0 0 0 0 0 0 0 0 0 0 0 0 0 0.43 0"/>
<feBlend mode="normal" in2="shape" result="effect1_innerShadow_2082_42803"/>
<feColorMatrix in="SourceAlpha" type="matrix" values="0 0 0 0 0 0 0 0 0 0 0 0 0 0 0 0 0 0 127 0" result="hardAlpha"/>
<feOffset dx="2.00911" dy="-2.00911"/>
<feGaussianBlur stdDeviation="3.83405"/>
<feComposite in2="hardAlpha" operator="arithmetic" k2="-1" k3="1"/>
<feColorMatrix type="matrix" values="0 0 0 0 1 0 0 0 0 1 0 0 0 0 1 0 0 0 0.55 0"/>
<feBlend mode="normal" in2="effect1_innerShadow_2082_42803" result="effect2_innerShadow_2082_42803"/>
</filter>
<filter id="filter2_ddii_2082_42803" x="15.7987" y="22.568" width="56.9905" height="53.3952" filterUnits="userSpaceOnUse" color-interpolation-filters="sRGB">
<feFlood flood-opacity="0" result="BackgroundImageFix"/>
<feColorMatrix in="SourceAlpha" type="matrix" values="0 0 0 0 0 0 0 0 0 0 0 0 0 0 0 0 0 0 127 0" result="hardAlpha"/>
<feOffset dx="1.33941" dy="-3.68337"/>
<feGaussianBlur stdDeviation="4.78838"/>
<feComposite in2="hardAlpha" operator="out"/>
<feColorMatrix type="matrix" values="0 0 0 0 1 0 0 0 0 1 0 0 0 0 1 0 0 0 0.99 0"/>
<feBlend mode="normal" in2="BackgroundImageFix" result="effect1_dropShadow_2082_42803"/>
<feColorMatrix in="SourceAlpha" type="matrix" values="0 0 0 0 0 0 0 0 0 0 0 0 0 0 0 0 0 0 127 0" result="hardAlpha"/>
<feOffset dx="-1.33941" dy="3.68337"/>
<feGaussianBlur stdDeviation="4.55399"/>
<feComposite in2="hardAlpha" operator="out"/>
<feColorMatrix type="matrix" values="0 0 0 0 0.0272251 0 0 0 0 0.0125 0 0 0 0 0.2 0 0 0 1 0"/>
<feBlend mode="normal" in2="effect1_dropShadow_2082_42803" result="effect2_dropShadow_2082_42803"/>
<feBlend mode="normal" in="SourceGraphic" in2="effect2_dropShadow_2082_42803" result="shape"/>
<feColorMatrix in="SourceAlpha" type="matrix" values="0 0 0 0 0 0 0 0 0 0 0 0 0 0 0 0 0 0 127 0" result="hardAlpha"/>
<feOffset dx="-1.33941" dy="3.68337"/>
<feGaussianBlur stdDeviation="1.22221"/>
<feComposite in2="hardAlpha" operator="arithmetic" k2="-1" k3="1"/>
<feColorMatrix type="matrix" values="0 0 0 0 1 0 0 0 0 1 0 0 0 0 1 0 0 0 1 0"/>
<feBlend mode="normal" in2="shape" result="effect3_innerShadow_2082_42803"/>
<feColorMatrix in="SourceAlpha" type="matrix" values="0 0 0 0 0 0 0 0 0 0 0 0 0 0 0 0 0 0 127 0" result="hardAlpha"/>
<feOffset dx="1.33941" dy="-3.68337"/>
<feGaussianBlur stdDeviation="1.55706"/>
<feComposite in2="hardAlpha" operator="arithmetic" k2="-1" k3="1"/>
<feColorMatrix type="matrix" values="0 0 0 0 0 0 0 0 0 0 0 0 0 0 0 0 0 0 0.58 0"/>
<feBlend mode="normal" in2="effect3_innerShadow_2082_42803" result="effect4_innerShadow_2082_42803"/>
</filter>
<filter id="filter3_f_2082_42803" x="13.4086" y="39.4653" width="17.6183" height="43.3644" filterUnits="userSpaceOnUse" color-interpolation-filters="sRGB">
<feFlood flood-opacity="0" result="BackgroundImageFix"/>
<feBlend mode="normal" in="SourceGraphic" in2="BackgroundImageFix" result="shape"/>
<feGaussianBlur stdDeviation="0.801549" result="effect1_foregroundBlur_2082_42803"/>
</filter>
<linearGradient id="paint0_linear_2082_42803" x1="64.1406" y1="4.2878" x2="20.8638" y2="95.626" gradientUnits="userSpaceOnUse">
<stop stop-color="#DDDAFA"/>
<stop offset="0.9999" stop-color="#9893C8"/>
</linearGradient>
<linearGradient id="paint1_linear_2082_42803" x1="72.2612" y1="14.1644" x2="24.1308" y2="92.6146" gradientUnits="userSpaceOnUse">
<stop stop-color="#ACA5FF"/>
<stop offset="1" stop-color="#4333FF"/>
</linearGradient>
<linearGradient id="paint2_linear_2082_42803" x1="69.1137" y1="18.5296" x2="26.3372" y2="88.2533" gradientUnits="userSpaceOnUse">
<stop stop-color="#ACA5FF"/>
<stop offset="1" stop-color="#4333FF"/>
</linearGradient>
<linearGradient id="paint3_linear_2082_42803" x1="64.4091" y1="23.435" x2="27.7155" y2="81.082" gradientUnits="userSpaceOnUse">
<stop stop-color="#4333FF"/>
<stop offset="1" stop-color="#ACA5FF"/>
</linearGradient>
<linearGradient id="paint4_linear_2082_42803" x1="39.104" y1="50.3289" x2="35.9909" y2="58.4195" gradientUnits="userSpaceOnUse">
<stop stop-color="#D4D1F7"/>
<stop offset="1" stop-color="#B0ABEB"/>
</linearGradient>
<linearGradient id="paint5_linear_2082_42803" x1="18.9034" y1="40.9379" x2="23.1829" y2="81.3948" gradientUnits="userSpaceOnUse">
<stop stop-color="white" stop-opacity="0"/>
<stop offset="0.47" stop-color="white"/>
<stop offset="1" stop-color="white" stop-opacity="0"/>
</linearGradient>
</defs>
</svg>
