<svg width="173" height="40" viewBox="0 0 173 40" fill="none" xmlns="http://www.w3.org/2000/svg">
<rect width="173" height="40" rx="6" fill="#D93841"/>
<path d="M15.262 23.152H18.398V25H12.868V15.172H15.262V23.152ZM23.0959 25.112C22.3305 25.112 21.6399 24.9487 21.0239 24.622C20.4172 24.2953 19.9365 23.8287 19.5819 23.222C19.2365 22.6153 19.0639 21.906 19.0639 21.094C19.0639 20.2913 19.2412 19.5867 19.5959 18.98C19.9505 18.364 20.4359 17.8927 21.0519 17.566C21.6679 17.2393 22.3585 17.076 23.1239 17.076C23.8892 17.076 24.5799 17.2393 25.1959 17.566C25.8119 17.8927 26.2972 18.364 26.6519 18.98C27.0065 19.5867 27.1839 20.2913 27.1839 21.094C27.1839 21.8967 27.0019 22.606 26.6379 23.222C26.2832 23.8287 25.7932 24.2953 25.1679 24.622C24.5519 24.9487 23.8612 25.112 23.0959 25.112ZM23.0959 23.04C23.5532 23.04 23.9405 22.872 24.2579 22.536C24.5845 22.2 24.7479 21.7193 24.7479 21.094C24.7479 20.4687 24.5892 19.988 24.2719 19.652C23.9639 19.316 23.5812 19.148 23.1239 19.148C22.6572 19.148 22.2699 19.316 21.9619 19.652C21.6539 19.9787 21.4999 20.4593 21.4999 21.094C21.4999 21.7193 21.6492 22.2 21.9479 22.536C22.2559 22.872 22.6385 23.04 23.0959 23.04ZM31.4219 17.076C31.9726 17.076 32.4533 17.188 32.8639 17.412C33.2839 17.636 33.6059 17.93 33.8299 18.294V17.188H36.2239V24.986C36.2239 25.7047 36.0793 26.3533 35.7899 26.932C35.5099 27.52 35.0759 27.9867 34.4879 28.332C33.9093 28.6773 33.1859 28.85 32.3179 28.85C31.1606 28.85 30.2226 28.5747 29.5039 28.024C28.7853 27.4827 28.3746 26.7453 28.2719 25.812H30.6379C30.7126 26.1107 30.8899 26.344 31.1699 26.512C31.4499 26.6893 31.7953 26.778 32.2059 26.778C32.7006 26.778 33.0926 26.6333 33.3819 26.344C33.6806 26.064 33.8299 25.6113 33.8299 24.986V23.88C33.5966 24.244 33.2746 24.5427 32.8639 24.776C32.4533 25 31.9726 25.112 31.4219 25.112C30.7779 25.112 30.1946 24.9487 29.6719 24.622C29.1493 24.286 28.7339 23.8147 28.4259 23.208C28.1273 22.592 27.9779 21.8827 27.9779 21.08C27.9779 20.2773 28.1273 19.5727 28.4259 18.966C28.7339 18.3593 29.1493 17.8927 29.6719 17.566C30.1946 17.2393 30.7779 17.076 31.4219 17.076ZM33.8299 21.094C33.8299 20.4967 33.6619 20.0253 33.3259 19.68C32.9993 19.3347 32.5979 19.162 32.1219 19.162C31.6459 19.162 31.2399 19.3347 30.9039 19.68C30.5773 20.016 30.4139 20.4827 30.4139 21.08C30.4139 21.6773 30.5773 22.1533 30.9039 22.508C31.2399 22.8533 31.6459 23.026 32.1219 23.026C32.5979 23.026 32.9993 22.8533 33.3259 22.508C33.6619 22.1627 33.8299 21.6913 33.8299 21.094ZM42.1267 16.376C41.7067 16.376 41.3614 16.2547 41.0907 16.012C40.8294 15.76 40.6987 15.452 40.6987 15.088C40.6987 14.7147 40.8294 14.4067 41.0907 14.164C41.3614 13.912 41.7067 13.786 42.1267 13.786C42.5374 13.786 42.8734 13.912 43.1347 14.164C43.4054 14.4067 43.5407 14.7147 43.5407 15.088C43.5407 15.452 43.4054 15.76 43.1347 16.012C42.8734 16.2547 42.5374 16.376 42.1267 16.376ZM43.3167 17.188V25H40.9227V17.188H43.3167ZM49.8116 17.104C50.7263 17.104 51.4543 17.4027 51.9956 18C52.5463 18.588 52.8216 19.4 52.8216 20.436V25H50.4416V20.758C50.4416 20.2353 50.3063 19.8293 50.0356 19.54C49.7649 19.2507 49.4009 19.106 48.9436 19.106C48.4863 19.106 48.1223 19.2507 47.8516 19.54C47.5809 19.8293 47.4456 20.2353 47.4456 20.758V25H45.0516V17.188H47.4456V18.224C47.6883 17.8787 48.0149 17.608 48.4256 17.412C48.8363 17.2067 49.2983 17.104 49.8116 17.104Z" fill="white"/>
<path d="M68.082 17.188L65.968 25H63.322L62.09 19.932L60.816 25H58.184L56.056 17.188H58.45L59.556 22.774L60.872 17.188H63.406L64.736 22.746L65.828 17.188H68.082ZM70.199 16.376C69.779 16.376 69.4336 16.2547 69.163 16.012C68.9016 15.76 68.771 15.452 68.771 15.088C68.771 14.7147 68.9016 14.4067 69.163 14.164C69.4336 13.912 69.779 13.786 70.199 13.786C70.6096 13.786 70.9456 13.912 71.207 14.164C71.4776 14.4067 71.613 14.7147 71.613 15.088C71.613 15.452 71.4776 15.76 71.207 16.012C70.9456 16.2547 70.6096 16.376 70.199 16.376ZM71.389 17.188V25H68.995V17.188H71.389ZM77.4779 22.97V25H76.2599C75.3919 25 74.7152 24.79 74.2299 24.37C73.7445 23.9407 73.5019 23.2453 73.5019 22.284V19.176H72.5499V17.188H73.5019V15.284H75.8959V17.188H77.4639V19.176H75.8959V22.312C75.8959 22.5453 75.9519 22.7133 76.0639 22.816C76.1759 22.9187 76.3625 22.97 76.6239 22.97H77.4779ZM83.6134 17.104C84.5094 17.104 85.228 17.4027 85.7694 18C86.3107 18.588 86.5814 19.4 86.5814 20.436V25H84.2014V20.758C84.2014 20.2353 84.066 19.8293 83.7954 19.54C83.5247 19.2507 83.1607 19.106 82.7034 19.106C82.246 19.106 81.882 19.2507 81.6114 19.54C81.3407 19.8293 81.2054 20.2353 81.2054 20.758V25H78.8114V14.64H81.2054V18.238C81.448 17.8927 81.7794 17.6173 82.1994 17.412C82.6194 17.2067 83.0907 17.104 83.6134 17.104Z" fill="white"/>
<path fill-rule="evenodd" clip-rule="evenodd" d="M100.357 19.3166C101.179 19.3166 101.816 18.6797 101.816 17.8583C101.816 17.0369 101.179 16.3999 100.357 16.3999C99.5353 16.3999 98.8979 17.0369 98.8979 17.8583C98.8979 18.6797 99.5353 19.3166 100.357 19.3166Z" fill="white"/>
<path fill-rule="evenodd" clip-rule="evenodd" d="M98.7805 25.0161H101.934L101.263 19.8028C100.76 19.9537 99.9545 19.9537 99.4514 19.8028L98.7805 25.0161Z" fill="white"/>
<path fill-rule="evenodd" clip-rule="evenodd" d="M94.4531 25.2384C96.5832 25.2384 97.8746 24.1166 97.8746 22.3658C97.8746 21.1421 97.1366 20.3092 95.6104 19.9693L94.1177 19.6293C93.5475 19.4934 93.2456 19.3064 93.2456 18.9664C93.2456 18.6265 93.5307 18.4056 94.168 18.4056C94.9395 18.4056 95.7446 18.7795 96.298 19.2894L97.5559 17.4198C96.9521 16.8758 95.711 16.3999 94.168 16.3999C92.1721 16.3999 90.8304 17.4027 90.8304 19.1025C90.8304 20.3432 91.5181 21.244 92.9772 21.584L94.4699 21.941C95.2078 22.1109 95.4427 22.3319 95.4427 22.6209C95.4427 22.9948 95.1408 23.1987 94.4531 23.1987C93.6481 23.1987 92.6753 22.8588 91.887 22.1789L90.6292 24.0486C91.2162 24.5925 92.5579 25.2384 94.4531 25.2384Z" fill="white"/>
<path fill-rule="evenodd" clip-rule="evenodd" d="M103.41 25.0685H105.925V20.4963C105.925 19.3745 106.462 18.6776 107.502 18.6776C108.492 18.6776 109.012 19.2555 109.012 20.4963V25.0685H111.527V19.8504C111.527 17.5728 110.404 16.4 108.475 16.4C107.368 16.4 106.529 16.8419 105.925 17.7087V17.1648C105.925 16.7909 105.708 16.5699 105.339 16.5699H103.41V25.0685Z" fill="white"/>
<path fill-rule="evenodd" clip-rule="evenodd" d="M117.331 22.5869C116.274 22.5869 115.419 21.7201 115.419 20.6153C115.419 19.5104 116.274 18.6436 117.331 18.6436C118.471 18.6436 119.293 19.5104 119.293 20.6153C119.293 21.7201 118.471 22.5869 117.331 22.5869ZM119.796 16.5699C119.427 16.5699 119.209 16.7909 119.209 17.1648V17.6747C118.639 16.8079 117.733 16.4 116.66 16.4C114.63 16.4 112.869 18.2017 112.869 20.6152C112.869 23.0288 114.63 24.8305 116.66 24.8305C117.733 24.8305 118.605 24.4906 119.209 23.7257V24.2696C119.209 25.4254 118.454 26.2583 117.163 26.2583C116.006 26.2583 115.117 25.7653 114.563 25.2215L113.255 27.1931C114.094 27.958 115.486 28.3999 117.163 28.3999C119.679 28.3999 121.725 27.1251 121.725 23.9297V16.5699H119.796Z" fill="white"/>
<path fill-rule="evenodd" clip-rule="evenodd" d="M128.115 22.9948C126.925 22.9948 126.002 22.0939 126.002 20.8192C126.002 19.5444 126.925 18.6435 128.115 18.6435C129.289 18.6435 130.178 19.5444 130.178 20.8192C130.178 22.0939 129.289 22.9948 128.115 22.9948ZM128.786 16.3999C127.646 16.3999 126.707 16.8078 126.086 17.6747V17.1647C126.086 16.7909 125.868 16.5699 125.499 16.5699H123.57V28.1959H126.086V24.1336C126.74 24.8984 127.646 25.2384 128.786 25.2384C130.967 25.2384 132.728 23.4367 132.728 20.8192C132.728 18.2016 130.967 16.3999 128.786 16.3999Z" fill="white"/>
<path fill-rule="evenodd" clip-rule="evenodd" d="M138.414 22.9948C137.24 22.9948 136.351 22.0939 136.351 20.8192C136.351 19.5444 137.24 18.6435 138.414 18.6435C139.604 18.6435 140.527 19.5444 140.527 20.8192C140.527 22.0939 139.604 22.9948 138.414 22.9948ZM141.03 16.5699C140.661 16.5699 140.443 16.7909 140.443 17.1647V17.6747C139.822 16.8078 138.883 16.3999 137.743 16.3999C135.562 16.3999 133.801 18.2016 133.801 20.8192C133.801 23.4367 135.562 25.2384 137.743 25.2384C138.883 25.2384 139.822 24.8304 140.443 23.9636V25.0684H142.959V16.5699H141.03Z" fill="white"/>
<path fill-rule="evenodd" clip-rule="evenodd" d="M148.058 25.2384C150.188 25.2384 151.479 24.1166 151.479 22.3658C151.479 21.1421 150.741 20.3092 149.215 19.9693L147.722 19.6293C147.152 19.4934 146.85 19.3064 146.85 18.9664C146.85 18.6265 147.135 18.4056 147.772 18.4056C148.544 18.4056 149.349 18.7795 149.902 19.2894L151.16 17.4198C150.557 16.8758 149.315 16.3999 147.772 16.3999C145.777 16.3999 144.435 17.4027 144.435 19.1025C144.435 20.3432 145.122 21.244 146.582 21.584L148.074 21.941C148.812 22.1109 149.047 22.3319 149.047 22.6209C149.047 22.9948 148.745 23.1987 148.058 23.1987C147.253 23.1987 146.28 22.8588 145.491 22.1789L144.234 24.0486C144.821 24.5925 146.162 25.2384 148.058 25.2384Z" fill="white"/>
<path fill-rule="evenodd" clip-rule="evenodd" d="M156.008 25.2384C158.138 25.2384 159.429 24.1166 159.429 22.3658C159.429 21.1421 158.691 20.3092 157.165 19.9693L155.672 19.6293C155.102 19.4934 154.8 19.3064 154.8 18.9664C154.8 18.6265 155.085 18.4056 155.723 18.4056C156.494 18.4056 157.299 18.7795 157.853 19.2894L159.111 17.4198C158.507 16.8758 157.266 16.3999 155.723 16.3999C153.727 16.3999 152.385 17.4027 152.385 19.1025C152.385 20.3432 153.073 21.244 154.532 21.584L156.024 21.941C156.762 22.1109 156.997 22.3319 156.997 22.6209C156.997 22.9948 156.695 23.1987 156.008 23.1987C155.203 23.1987 154.23 22.8588 153.442 22.1789L152.184 24.0486C152.771 24.5925 154.113 25.2384 156.008 25.2384Z" fill="white"/>
</svg>
